<svg xmlns="http://www.w3.org/2000/svg" viewBox="0 0 32 32"><defs><style>.cls-1{fill:#68c7d3;}.cls-2{fill:#a1d8df;}.cls-3{fill:#d1e6e9;}.cls-4{fill:#30acc2;}</style></defs><title>Meditate</title><g id="Meditate"><path class="cls-1" d="M24,29H4c0-2.41-.12-1.93,5-5H19C24.15,27.09,24,26.58,24,29Z"/><path class="cls-2" d="M23.06,31H10.55a1.55,1.55,0,0,1-.1-3.09l12.49-.78A1.94,1.94,0,1,1,23.06,31Z"/><path class="cls-2" d="M17.45,31H4.94a1.94,1.94,0,1,1,.12-3.87l12.49.78A1.55,1.55,0,0,1,17.45,31Z"/><path class="cls-3" d="M17.45,31H11V27.5l6.55.41A1.55,1.55,0,0,1,17.45,31Z"/><path class="cls-3" d="M18,7a4,4,0,0,1-8,0V5a4,4,0,0,1,6.83-2.83C18.23,3.59,18,5,18,7Z"/><path class="cls-3" d="M27,25.47A1.35,1.35,0,0,1,25.65,27c-.87,0-.86-.26-4.28-4.54-.52-.62-.6-1-2.37-5.46v7H9V17c-2.51,6.26-1.18,4-5.59,9.49A1.35,1.35,0,0,1,1,25.65a1.38,1.38,0,0,1,.3-1C5,20,5,20.12,5.11,19.61,7.17,12.35,6.29,13.14,12,12c4.8,0,3.17-.17,7.21.64,2.24.45,2.37,2.39,3.26,5.49.44,1.56.45,1.77.78,2.18C26.71,24.65,27,24.79,27,25.47Z"/><path class="cls-4" d="M22.47,18.13l-2.74.69L19,17v7H9V17l-.73,1.82-2.74-.69c1.59-5.53.89-5,6.47-6.13,4.8,0,3.17-.17,7.21.64C21.45,13.09,21.58,15,22.47,18.13Z"/><path class="cls-3" d="M16,12a2.83,2.83,0,0,1-4,0V8h4Z"/><path class="cls-3" d="M26.67,10.93A4.94,4.94,0,0,1,21,5.33,5,5,0,0,1,26.67,10.93Z"/><path class="cls-3" d="M25.33,10.93A5,5,0,0,1,31,5.33,5,5,0,0,1,25.33,10.93Z"/><path class="cls-2" d="M28,7a5.67,5.67,0,0,1-2,4,5.67,5.67,0,0,1-2-4,5.67,5.67,0,0,1,2-4A5.67,5.67,0,0,1,28,7Z"/><path class="cls-2" d="M18,6a6.84,6.84,0,0,1-5-2,3.26,3.26,0,0,1-3,2V5.23a4,4,0,0,1,6.83-3.06A4.67,4.67,0,0,1,18,6Z"/></g></svg>