<svg xmlns="http://www.w3.org/2000/svg" enable-background="new 0 0 68 68" viewBox="0 0 68 68" id="stressed-emoji"><path fill="#FBC41A" d="M33.9999,1.9999c-17.68,0-32,14.32-32,32c0,17.67,14.32,32,32,32c17.67,0,32-14.33,32-32
					C65.9999,16.3199,51.67,1.9999,33.9999,1.9999z"></path><path fill="#F59F02" d="M65.9999,33.9999c0,17.67-14.33,32-32,32c-14.05,0-25.97-9.05-30.28-21.62
					c4.84,2.9301,10.51,4.62,16.58,4.62c17.67,0,32-14.33,32-32c0-3.6299-0.6-7.12-1.71-10.37
					C59.83,12.2399,65.9999,22.3999,65.9999,33.9999z"></path><path d="M34,67C15.8037,67,1,52.1963,1,34S15.8037,1,34,1s33,14.8037,33,33S52.1963,67,34,67z M34,3C16.9067,3,3,16.9067,3,34
					s13.9067,31,31,31s31-13.9067,31-31S51.0933,3,34,3z"></path><circle cx="22.608" cy="25.193" r="9" fill="#FFF"></circle><path fill="#DEE1E6" d="M31.6082,25.1899c0,4.97-4.03,9-9,9c-2.93,0-5.53-1.4-7.17-3.5699c0.8,0.24,1.64,0.36,2.52,0.36
					c4.97,0,9-4.03,9-9c0-2.04-0.68-3.93-1.83-5.43C28.8682,17.6399,31.6082,21.0899,31.6082,25.1899z"></path><circle cx="23.48" cy="25.193" r="4.426"></circle><path d="M22.6084 35.1929c-5.5142 0-10-4.4858-10-10s4.4858-10 10-10 10 4.4858 10 10S28.1226 35.1929 22.6084 35.1929zM22.6084 17.1929c-4.4111 0-8 3.5889-8 8s3.5889 8 8 8 8-3.5889 8-8S27.0195 17.1929 22.6084 17.1929zM30.3257 15.0132c-2.0742-1.71-4.6626-2.6523-7.2881-2.6543-.5522-.0005-1-.4482-.9995-1.0005s.4482-.9995 1-.9995h.0005c3.0884.002 6.1279 1.1069 8.5596 3.1113.4258.3511.4868.9814.1353 1.4077C31.3821 15.3038 30.752 15.3647 30.3257 15.0132zM36.2666 14.8779c-.3516-.4263-.2905-1.0566.1353-1.4077 2.4316-2.0044 5.4712-3.1094 8.5596-3.1113h.0005c.5522 0 .9995.4473 1 .9995s-.4473 1-.9995 1.0005c-2.6255.002-5.2139.9443-7.2881 2.6543C37.2484 15.3644 36.6182 15.3041 36.2666 14.8779z"></path><circle cx="45.392" cy="25.193" r="9" fill="#FFF"></circle><g><path fill="#DEE1E6" d="M54.3899,25.1899c0,4.97-4.03,9-9,9c-2.93,0-5.53-1.4-7.17-3.5699c0.8,0.24,1.64,0.36,2.52,0.36
				c4.97,0,9-4.03,9-9c0-2.04-0.68-3.93-1.83-5.43C51.65,17.6399,54.3899,21.0899,54.3899,25.1899z"></path></g><g><circle cx="44.52" cy="25.193" r="4.426"></circle></g><g><circle cx="42.184" cy="23.552" r="1.571" fill="#DEE1E6"></circle></g><g><circle cx="25.82" cy="23.552" r="1.571" fill="#DEE1E6"></circle></g><g><path d="M45.3916,35.1929c-5.5142,0-10-4.4858-10-10s4.4858-10,10-10s10,4.4858,10,10S50.9058,35.1929,45.3916,35.1929z
				 M45.3916,17.1929c-4.4111,0-8,3.5889-8,8s3.5889,8,8,8s8-3.5889,8-8S49.8027,17.1929,45.3916,17.1929z"></path></g><g><path d="M43.9995,53.8794c-0.7686,0-1.5366-0.2925-2.1216-0.8774L39.708,50.832c-0.377-0.377-1.0396-0.377-1.4155,0
			l-2.1704,2.1699c-1.1699,1.1699-3.0742,1.1699-4.2441,0L29.708,50.832c-0.377-0.377-1.0396-0.377-1.4155,0l-2.1704,2.1699
			c-1.1699,1.1699-3.0742,1.1699-4.2441,0l-1.1099-1.1099c-0.3906-0.3906-0.3906-1.0234,0-1.4141s1.0234-0.3906,1.4141,0
			l1.1099,1.1099c0.3906,0.3896,1.0254,0.3901,1.416-0.0005l2.1699-2.1694c1.1318-1.1323,3.1108-1.1333,4.2441,0l2.1699,2.1699
			c0.3906,0.3896,1.0254,0.3901,1.416-0.0005l2.1699-2.1694c1.1318-1.1323,3.1113-1.1333,4.2441,0l2.1699,2.1699
			c0.3906,0.3896,1.0254,0.3901,1.416-0.0005l1.1099-1.1094c0.3906-0.3906,1.0234-0.3906,1.4141,0s0.3906,1.0234,0,1.4141
			l-1.1099,1.1099C45.5371,53.5869,44.7681,53.8794,43.9995,53.8794z"></path></g></svg>