<svg xmlns="http://www.w3.org/2000/svg" xmlns:xlink="http://www.w3.org/1999/xlink" width="500" zoomAndPan="magnify" viewBox="0 0 375 374.999991" height="500" preserveAspectRatio="xMidYMid meet" version="1.0"><defs><g/><clipPath id="f39c23c497"><path d="M 288.808594 147.863281 L 324 147.863281 L 324 184.613281 L 288.808594 184.613281 Z M 288.808594 147.863281 " clip-rule="nonzero"/></clipPath></defs><g clip-path="url(#f39c23c497)"><path fill="#5fa5ce" d="M 288.902344 148.488281 L 288.902344 183.609375 C 288.902344 183.785156 288.964844 183.929688 289.085938 184.054688 C 289.210938 184.175781 289.359375 184.238281 289.53125 184.238281 L 317.125 184.238281 C 317.300781 184.238281 317.445312 184.175781 317.570312 184.054688 C 317.691406 183.929688 317.753906 183.785156 317.753906 183.609375 L 317.753906 173.113281 L 322.355469 166.050781 L 323.085938 164.941406 C 323.269531 164.65625 323.394531 164.34375 323.457031 164.007812 C 323.519531 163.671875 323.515625 163.339844 323.445312 163.003906 C 323.378906 162.671875 323.246094 162.363281 323.054688 162.082031 C 322.863281 161.800781 322.625 161.566406 322.335938 161.378906 L 322.199219 161.289062 C 321.914062 161.101562 321.605469 160.976562 321.269531 160.914062 C 320.933594 160.851562 320.597656 160.855469 320.265625 160.925781 C 319.929688 160.996094 319.621094 161.125 319.339844 161.320312 C 319.058594 161.511719 318.824219 161.75 318.636719 162.035156 L 318.066406 162.914062 L 317.742188 163.417969 L 317.742188 153.019531 C 317.738281 152.851562 317.679688 152.710938 317.566406 152.589844 L 313.03125 148.042969 C 312.914062 147.921875 312.773438 147.863281 312.605469 147.863281 L 289.511719 147.863281 C 289.34375 147.867188 289.199219 147.929688 289.082031 148.054688 C 288.964844 148.175781 288.902344 148.320312 288.902344 148.488281 Z M 314.617188 175.703125 L 312.203125 174.121094 L 318.75 164.082031 L 321.164062 165.660156 Z M 311.851562 175.339844 L 313.589844 176.472656 L 311.652344 177.539062 Z M 321.542969 162.289062 L 321.679688 162.375 C 321.832031 162.472656 321.957031 162.597656 322.058594 162.746094 C 322.160156 162.894531 322.230469 163.058594 322.269531 163.234375 C 322.304688 163.410156 322.308594 163.585938 322.273438 163.765625 C 322.238281 163.941406 322.171875 164.105469 322.074219 164.257812 L 321.824219 164.640625 L 319.410156 163.066406 L 319.660156 162.675781 C 319.757812 162.527344 319.882812 162.398438 320.03125 162.300781 C 320.179688 162.199219 320.34375 162.128906 320.519531 162.09375 C 320.695312 162.054688 320.875 162.054688 321.050781 162.089844 C 321.226562 162.121094 321.390625 162.1875 321.542969 162.289062 Z M 315.898438 152.636719 L 313 152.636719 L 313 149.746094 Z M 290.121094 149.074219 L 311.78125 149.074219 L 311.78125 153.25 C 311.78125 153.421875 311.84375 153.570312 311.964844 153.695312 C 312.089844 153.816406 312.238281 153.878906 312.410156 153.878906 L 316.542969 153.878906 L 316.542969 165.265625 L 310.847656 173.945312 C 310.828125 173.980469 310.816406 174.015625 310.804688 174.054688 C 310.789062 174.089844 310.777344 174.132812 310.765625 174.171875 L 310.367188 178.59375 C 310.347656 178.832031 310.4375 179.019531 310.636719 179.15625 C 310.84375 179.277344 311.054688 179.277344 311.261719 179.15625 L 315.070312 177.0625 C 315.132812 177.03125 315.183594 176.988281 315.226562 176.929688 L 315.257812 176.894531 L 316.511719 175.011719 L 316.511719 183.027344 L 290.121094 183.027344 Z M 290.121094 149.074219 " fill-opacity="1" fill-rule="nonzero"/></g><path fill="#5fa5ce" d="M 294.035156 156.882812 L 312.847656 156.945312 C 312.941406 156.96875 313.035156 156.96875 313.132812 156.949219 C 313.226562 156.929688 313.3125 156.890625 313.386719 156.828125 C 313.464844 156.769531 313.523438 156.699219 313.566406 156.609375 C 313.605469 156.523438 313.628906 156.433594 313.628906 156.335938 C 313.628906 156.238281 313.605469 156.148438 313.566406 156.058594 C 313.523438 155.972656 313.464844 155.902344 313.386719 155.839844 C 313.3125 155.78125 313.226562 155.742188 313.132812 155.722656 C 313.035156 155.703125 312.941406 155.703125 312.847656 155.726562 L 294.035156 155.671875 C 293.941406 155.644531 293.84375 155.640625 293.75 155.660156 C 293.652344 155.679688 293.566406 155.71875 293.488281 155.777344 C 293.410156 155.835938 293.351562 155.910156 293.308594 156 C 293.265625 156.085938 293.242188 156.179688 293.242188 156.277344 C 293.242188 156.375 293.265625 156.464844 293.308594 156.554688 C 293.351562 156.640625 293.410156 156.714844 293.488281 156.773438 C 293.566406 156.832031 293.652344 156.871094 293.75 156.890625 C 293.84375 156.910156 293.941406 156.90625 294.035156 156.882812 Z M 294.035156 156.882812 " fill-opacity="1" fill-rule="nonzero"/><path fill="#5fa5ce" d="M 294.035156 162.632812 L 312.847656 162.695312 C 313.023438 162.695312 313.171875 162.632812 313.292969 162.511719 C 313.414062 162.390625 313.476562 162.242188 313.476562 162.066406 C 313.476562 161.894531 313.414062 161.746094 313.292969 161.625 C 313.171875 161.5 313.023438 161.441406 312.847656 161.441406 L 294.035156 161.378906 C 293.941406 161.351562 293.84375 161.347656 293.75 161.367188 C 293.652344 161.386719 293.566406 161.425781 293.488281 161.484375 C 293.410156 161.542969 293.351562 161.617188 293.308594 161.707031 C 293.265625 161.792969 293.242188 161.886719 293.242188 161.984375 C 293.242188 162.082031 293.265625 162.171875 293.308594 162.261719 C 293.351562 162.347656 293.410156 162.421875 293.488281 162.480469 C 293.566406 162.539062 293.652344 162.578125 293.75 162.597656 C 293.84375 162.617188 293.941406 162.613281 294.035156 162.589844 Z M 294.035156 162.632812 " fill-opacity="1" fill-rule="nonzero"/><path fill="#5fa5ce" d="M 308.972656 167.234375 L 294.035156 167.171875 C 293.941406 167.148438 293.847656 167.148438 293.753906 167.167969 C 293.65625 167.1875 293.570312 167.226562 293.496094 167.285156 C 293.417969 167.347656 293.359375 167.417969 293.316406 167.507812 C 293.277344 167.59375 293.253906 167.683594 293.253906 167.78125 C 293.253906 167.878906 293.277344 167.96875 293.316406 168.054688 C 293.359375 168.144531 293.417969 168.214844 293.496094 168.277344 C 293.570312 168.335938 293.65625 168.375 293.753906 168.394531 C 293.847656 168.414062 293.941406 168.414062 294.035156 168.390625 L 308.972656 168.445312 C 309.066406 168.472656 309.164062 168.476562 309.257812 168.457031 C 309.355469 168.4375 309.441406 168.398438 309.519531 168.339844 C 309.597656 168.28125 309.65625 168.207031 309.699219 168.117188 C 309.742188 168.03125 309.765625 167.9375 309.765625 167.839844 C 309.765625 167.742188 309.742188 167.652344 309.699219 167.5625 C 309.65625 167.476562 309.597656 167.402344 309.519531 167.34375 C 309.441406 167.285156 309.355469 167.246094 309.257812 167.226562 C 309.164062 167.207031 309.066406 167.210938 308.972656 167.234375 Z M 308.972656 167.234375 " fill-opacity="1" fill-rule="nonzero"/><path fill="#5fa5ce" d="M 306.972656 176.085938 L 294.292969 176.003906 C 294.15625 176.039062 294.042969 176.113281 293.957031 176.226562 C 293.871094 176.339844 293.828125 176.46875 293.828125 176.609375 C 293.828125 176.75 293.871094 176.875 293.957031 176.988281 C 294.042969 177.101562 294.15625 177.175781 294.292969 177.214844 L 306.984375 177.277344 C 307.078125 177.300781 307.171875 177.300781 307.265625 177.28125 C 307.363281 177.261719 307.445312 177.222656 307.523438 177.164062 C 307.597656 177.101562 307.660156 177.03125 307.699219 176.941406 C 307.742188 176.855469 307.765625 176.765625 307.765625 176.667969 C 307.765625 176.570312 307.742188 176.480469 307.699219 176.394531 C 307.660156 176.304688 307.597656 176.234375 307.523438 176.171875 C 307.445312 176.113281 307.363281 176.074219 307.265625 176.054688 C 307.171875 176.035156 307.078125 176.035156 306.984375 176.058594 Z M 306.972656 176.085938 " fill-opacity="1" fill-rule="nonzero"/><g fill="#5fa5ce" fill-opacity="1"><g transform="translate(54.266434, 197.364947)"><g><path d="M 15.90625 0 L -1.40625 -41.25 L 9.203125 -41.25 L 19.59375 -14.15625 L 30 -41.25 L 40.59375 -41.25 L 23.296875 0 Z M 15.90625 0 "/></g></g></g><g fill="#5fa5ce" fill-opacity="1"><g transform="translate(88.760361, 197.364947)"><g><path d="M 3.84375 -39.953125 C 4.882812 -40.984375 6.117188 -41.5 7.546875 -41.5 C 8.984375 -41.5 10.21875 -40.984375 11.25 -39.953125 C 12.28125 -38.921875 12.796875 -37.6875 12.796875 -36.25 C 12.796875 -34.8125 12.28125 -33.578125 11.25 -32.546875 C 10.21875 -31.515625 8.984375 -31 7.546875 -31 C 6.117188 -31 4.882812 -31.515625 3.84375 -32.546875 C 2.8125 -33.578125 2.296875 -34.8125 2.296875 -36.25 C 2.296875 -37.6875 2.8125 -38.921875 3.84375 -39.953125 Z M 3 -25.65625 L 3 0 L 11.84375 0 L 11.84375 -25.65625 Z M 3 -25.65625 "/></g></g></g><g fill="#5fa5ce" fill-opacity="1"><g transform="translate(99.158021, 197.364947)"><g><path d="M 29.390625 -22.453125 C 31.796875 -19.816406 33 -16.597656 33 -12.796875 C 33 -8.992188 31.796875 -5.785156 29.390625 -3.171875 C 26.992188 -0.554688 23.945312 0.75 20.25 0.75 C 16.851562 0.75 14.050781 -0.46875 11.84375 -2.90625 L 11.75 -2.90625 L 11.75 0 L 3 0 L 3 -43 L 11.84375 -43 L 11.84375 -23.203125 C 14.050781 -25.335938 16.851562 -26.40625 20.25 -26.40625 C 23.945312 -26.40625 26.992188 -25.085938 29.390625 -22.453125 Z M 21.9375 -8.46875 C 23.039062 -9.59375 23.59375 -11.035156 23.59375 -12.796875 C 23.59375 -14.566406 23.019531 -16.015625 21.875 -17.140625 C 20.726562 -18.273438 19.300781 -18.84375 17.59375 -18.84375 C 15.925781 -18.84375 14.519531 -18.273438 13.375 -17.140625 C 12.226562 -16.015625 11.65625 -14.566406 11.65625 -12.796875 C 11.65625 -11.066406 12.210938 -9.632812 13.328125 -8.5 C 14.441406 -7.363281 15.863281 -6.796875 17.59375 -6.796875 C 19.394531 -6.796875 20.84375 -7.351562 21.9375 -8.46875 Z M 21.9375 -8.46875 "/></g></g></g><g fill="#5fa5ce" fill-opacity="1"><g transform="translate(128.602735, 197.364947)"><g><path d="M 28.953125 -11.59375 L 10.34375 -11.59375 C 10.34375 -9.800781 10.925781 -8.46875 12.09375 -7.59375 C 13.257812 -6.726562 14.53125 -6.296875 15.90625 -6.296875 C 17.332031 -6.296875 18.460938 -6.488281 19.296875 -6.875 C 20.128906 -7.257812 21.082031 -8.019531 22.15625 -9.15625 L 28.546875 -5.953125 C 25.878906 -1.484375 21.445312 0.75 15.25 0.75 C 11.382812 0.75 8.066406 -0.570312 5.296875 -3.21875 C 2.535156 -5.875 1.15625 -9.066406 1.15625 -12.796875 C 1.15625 -16.535156 2.535156 -19.738281 5.296875 -22.40625 C 8.066406 -25.070312 11.382812 -26.40625 15.25 -26.40625 C 19.3125 -26.40625 22.617188 -25.226562 25.171875 -22.875 C 27.722656 -20.519531 29 -17.160156 29 -12.796875 C 29 -12.203125 28.984375 -11.800781 28.953125 -11.59375 Z M 10.59375 -16.5 L 20.34375 -16.5 C 20.144531 -17.832031 19.617188 -18.859375 18.765625 -19.578125 C 17.921875 -20.296875 16.832031 -20.65625 15.5 -20.65625 C 14.03125 -20.65625 12.863281 -20.269531 12 -19.5 C 11.132812 -18.726562 10.664062 -17.726562 10.59375 -16.5 Z M 10.59375 -16.5 "/></g></g></g><g fill="#5fa5ce" fill-opacity="1"><g transform="translate(154.04807, 197.364947)"><g><path d="M 18.203125 -42 C 20.429688 -42 22.613281 -41.671875 24.75 -41.015625 C 26.882812 -40.367188 28.46875 -39.726562 29.5 -39.09375 L 31 -38.09375 L 27.203125 -30.59375 C 26.898438 -30.800781 26.484375 -31.0625 25.953125 -31.375 C 25.421875 -31.6875 24.421875 -32.109375 22.953125 -32.640625 C 21.484375 -33.179688 20.113281 -33.453125 18.84375 -33.453125 C 17.28125 -33.453125 16.070312 -33.117188 15.21875 -32.453125 C 14.375 -31.785156 13.953125 -30.882812 13.953125 -29.75 C 13.953125 -29.1875 14.148438 -28.660156 14.546875 -28.171875 C 14.953125 -27.691406 15.632812 -27.175781 16.59375 -26.625 C 17.5625 -26.070312 18.410156 -25.628906 19.140625 -25.296875 C 19.878906 -24.960938 21.015625 -24.460938 22.546875 -23.796875 C 25.210938 -22.660156 27.488281 -21.117188 29.375 -19.171875 C 31.257812 -17.222656 32.203125 -15.015625 32.203125 -12.546875 C 32.203125 -10.179688 31.773438 -8.113281 30.921875 -6.34375 C 30.078125 -4.582031 28.910156 -3.203125 27.421875 -2.203125 C 25.941406 -1.203125 24.300781 -0.460938 22.5 0.015625 C 20.695312 0.503906 18.75 0.75 16.65625 0.75 C 14.851562 0.75 13.082031 0.566406 11.34375 0.203125 C 9.613281 -0.160156 8.164062 -0.617188 7 -1.171875 C 5.832031 -1.722656 4.78125 -2.265625 3.84375 -2.796875 C 2.914062 -3.328125 2.234375 -3.78125 1.796875 -4.15625 L 1.15625 -4.703125 L 5.84375 -12.59375 C 6.25 -12.257812 6.800781 -11.832031 7.5 -11.3125 C 8.195312 -10.800781 9.4375 -10.113281 11.21875 -9.25 C 13.007812 -8.382812 14.585938 -7.953125 15.953125 -7.953125 C 19.921875 -7.953125 21.90625 -9.300781 21.90625 -12 C 21.90625 -12.5625 21.757812 -13.082031 21.46875 -13.5625 C 21.1875 -14.050781 20.6875 -14.535156 19.96875 -15.015625 C 19.257812 -15.503906 18.628906 -15.890625 18.078125 -16.171875 C 17.523438 -16.453125 16.625 -16.882812 15.375 -17.46875 C 14.125 -18.050781 13.195312 -18.492188 12.59375 -18.796875 C 10.09375 -20.035156 8.160156 -21.578125 6.796875 -23.421875 C 5.429688 -25.273438 4.75 -27.269531 4.75 -29.40625 C 4.75 -33.101562 6.113281 -36.125 8.84375 -38.46875 C 11.582031 -40.820312 14.703125 -42 18.203125 -42 Z M 18.203125 -42 "/></g></g></g><g fill="#5fa5ce" fill-opacity="1"><g transform="translate(182.942878, 197.364947)"><g><path d="M 16.65625 -19.15625 C 14.988281 -19.15625 13.550781 -18.535156 12.34375 -17.296875 C 11.144531 -16.066406 10.546875 -14.582031 10.546875 -12.84375 C 10.546875 -11.082031 11.144531 -9.582031 12.34375 -8.34375 C 13.550781 -7.113281 14.988281 -6.5 16.65625 -6.5 C 17.445312 -6.5 18.203125 -6.597656 18.921875 -6.796875 C 19.640625 -6.992188 20.164062 -7.195312 20.5 -7.40625 L 20.953125 -7.703125 L 23.953125 -1.546875 C 23.710938 -1.378906 23.382812 -1.171875 22.96875 -0.921875 C 22.550781 -0.671875 21.601562 -0.332031 20.125 0.09375 C 18.644531 0.53125 17.050781 0.75 15.34375 0.75 C 11.582031 0.75 8.273438 -0.570312 5.421875 -3.21875 C 2.578125 -5.875 1.15625 -9.050781 1.15625 -12.75 C 1.15625 -16.476562 2.578125 -19.6875 5.421875 -22.375 C 8.273438 -25.0625 11.582031 -26.40625 15.34375 -26.40625 C 17.050781 -26.40625 18.617188 -26.203125 20.046875 -25.796875 C 21.484375 -25.398438 22.5 -25 23.09375 -24.59375 L 23.953125 -24 L 20.953125 -17.953125 C 19.847656 -18.753906 18.414062 -19.15625 16.65625 -19.15625 Z M 16.65625 -19.15625 "/></g></g></g><g fill="#5fa5ce" fill-opacity="1"><g transform="translate(202.789084, 197.364947)"><g><path d="M 3 0 L 3 -25.65625 L 11.84375 -25.65625 L 11.84375 -21.953125 L 11.953125 -21.953125 C 12.015625 -22.085938 12.117188 -22.253906 12.265625 -22.453125 C 12.421875 -22.648438 12.75 -23 13.25 -23.5 C 13.75 -24 14.28125 -24.445312 14.84375 -24.84375 C 15.414062 -25.25 16.148438 -25.609375 17.046875 -25.921875 C 17.953125 -26.242188 18.867188 -26.40625 19.796875 -26.40625 C 20.765625 -26.40625 21.710938 -26.269531 22.640625 -26 C 23.578125 -25.726562 24.265625 -25.460938 24.703125 -25.203125 L 25.40625 -24.796875 L 21.703125 -17.296875 C 20.597656 -18.234375 19.0625 -18.703125 17.09375 -18.703125 C 16.03125 -18.703125 15.113281 -18.46875 14.34375 -18 C 13.582031 -17.53125 13.039062 -16.960938 12.71875 -16.296875 C 12.40625 -15.628906 12.179688 -15.0625 12.046875 -14.59375 C 11.910156 -14.132812 11.84375 -13.769531 11.84375 -13.5 L 11.84375 0 Z M 3 0 "/></g></g></g><g fill="#5fa5ce" fill-opacity="1"><g transform="translate(222.985226, 197.364947)"><g><path d="M 3.84375 -39.953125 C 4.882812 -40.984375 6.117188 -41.5 7.546875 -41.5 C 8.984375 -41.5 10.21875 -40.984375 11.25 -39.953125 C 12.28125 -38.921875 12.796875 -37.6875 12.796875 -36.25 C 12.796875 -34.8125 12.28125 -33.578125 11.25 -32.546875 C 10.21875 -31.515625 8.984375 -31 7.546875 -31 C 6.117188 -31 4.882812 -31.515625 3.84375 -32.546875 C 2.8125 -33.578125 2.296875 -34.8125 2.296875 -36.25 C 2.296875 -37.6875 2.8125 -38.921875 3.84375 -39.953125 Z M 3 -25.65625 L 3 0 L 11.84375 0 L 11.84375 -25.65625 Z M 3 -25.65625 "/></g></g></g><g fill="#5fa5ce" fill-opacity="1"><g transform="translate(233.382892, 197.364947)"><g><path d="M 29.390625 -22.453125 C 31.796875 -19.816406 33 -16.597656 33 -12.796875 C 33 -8.992188 31.796875 -5.785156 29.390625 -3.171875 C 26.992188 -0.554688 23.945312 0.75 20.25 0.75 C 16.851562 0.75 14.050781 -0.46875 11.84375 -2.90625 L 11.75 -2.90625 L 11.75 0 L 3 0 L 3 -43 L 11.84375 -43 L 11.84375 -23.203125 C 14.050781 -25.335938 16.851562 -26.40625 20.25 -26.40625 C 23.945312 -26.40625 26.992188 -25.085938 29.390625 -22.453125 Z M 21.9375 -8.46875 C 23.039062 -9.59375 23.59375 -11.035156 23.59375 -12.796875 C 23.59375 -14.566406 23.019531 -16.015625 21.875 -17.140625 C 20.726562 -18.273438 19.300781 -18.84375 17.59375 -18.84375 C 15.925781 -18.84375 14.519531 -18.273438 13.375 -17.140625 C 12.226562 -16.015625 11.65625 -14.566406 11.65625 -12.796875 C 11.65625 -11.066406 12.210938 -9.632812 13.328125 -8.5 C 14.441406 -7.363281 15.863281 -6.796875 17.59375 -6.796875 C 19.394531 -6.796875 20.84375 -7.351562 21.9375 -8.46875 Z M 21.9375 -8.46875 "/></g></g></g><g fill="#5fa5ce" fill-opacity="1"><g transform="translate(262.8276, 197.364947)"><g><path d="M 28.953125 -11.59375 L 10.34375 -11.59375 C 10.34375 -9.800781 10.925781 -8.46875 12.09375 -7.59375 C 13.257812 -6.726562 14.53125 -6.296875 15.90625 -6.296875 C 17.332031 -6.296875 18.460938 -6.488281 19.296875 -6.875 C 20.128906 -7.257812 21.082031 -8.019531 22.15625 -9.15625 L 28.546875 -5.953125 C 25.878906 -1.484375 21.445312 0.75 15.25 0.75 C 11.382812 0.75 8.066406 -0.570312 5.296875 -3.21875 C 2.535156 -5.875 1.15625 -9.066406 1.15625 -12.796875 C 1.15625 -16.535156 2.535156 -19.738281 5.296875 -22.40625 C 8.066406 -25.070312 11.382812 -26.40625 15.25 -26.40625 C 19.3125 -26.40625 22.617188 -25.226562 25.171875 -22.875 C 27.722656 -20.519531 29 -17.160156 29 -12.796875 C 29 -12.203125 28.984375 -11.800781 28.953125 -11.59375 Z M 10.59375 -16.5 L 20.34375 -16.5 C 20.144531 -17.832031 19.617188 -18.859375 18.765625 -19.578125 C 17.921875 -20.296875 16.832031 -20.65625 15.5 -20.65625 C 14.03125 -20.65625 12.863281 -20.269531 12 -19.5 C 11.132812 -18.726562 10.664062 -17.726562 10.59375 -16.5 Z M 10.59375 -16.5 "/></g></g></g><g fill="#5fa5ce" fill-opacity="1"><g transform="translate(288.278141, 197.364947)"><g/></g></g><g fill="#5fa5ce" fill-opacity="1"><g transform="translate(297.22603, 197.364947)"><g/></g></g></svg>