<svg xmlns="http://www.w3.org/2000/svg" xmlns:xlink="http://www.w3.org/1999/xlink" width="500" zoomAndPan="magnify" viewBox="0 0 375 374.999991" height="500" preserveAspectRatio="xMidYMid meet" version="1.0"><defs><g/><clipPath id="94e00ba02b"><path d="M 320 144.113281 L 355 144.113281 L 355 180.863281 L 320 180.863281 Z M 320 144.113281 " clip-rule="nonzero"/></clipPath></defs><g clip-path="url(#94e00ba02b)"><path fill="#189ab4" d="M 320.035156 144.738281 L 320.035156 179.859375 C 320.035156 180.035156 320.09375 180.183594 320.21875 180.304688 C 320.339844 180.425781 320.488281 180.488281 320.660156 180.488281 L 348.257812 180.488281 C 348.429688 180.488281 348.578125 180.425781 348.699219 180.304688 C 348.824219 180.183594 348.882812 180.035156 348.882812 179.859375 L 348.882812 169.363281 L 353.488281 162.300781 L 354.214844 161.191406 C 354.402344 160.90625 354.523438 160.59375 354.589844 160.257812 C 354.652344 159.921875 354.648438 159.589844 354.578125 159.253906 C 354.507812 158.921875 354.375 158.613281 354.183594 158.332031 C 353.992188 158.050781 353.753906 157.816406 353.46875 157.628906 L 353.328125 157.539062 C 353.042969 157.351562 352.734375 157.226562 352.398438 157.164062 C 352.0625 157.101562 351.726562 157.105469 351.394531 157.175781 C 351.058594 157.246094 350.753906 157.375 350.46875 157.570312 C 350.1875 157.761719 349.953125 158 349.769531 158.285156 L 349.195312 159.164062 L 348.871094 159.667969 L 348.871094 149.269531 C 348.867188 149.101562 348.808594 148.960938 348.695312 148.839844 L 344.160156 144.292969 C 344.042969 144.171875 343.902344 144.113281 343.734375 144.113281 L 320.644531 144.113281 C 320.472656 144.117188 320.328125 144.179688 320.210938 144.304688 C 320.09375 144.425781 320.035156 144.570312 320.035156 144.738281 Z M 345.746094 171.953125 L 343.332031 170.371094 L 349.878906 160.332031 L 352.296875 161.910156 Z M 342.980469 171.589844 L 344.71875 172.722656 L 342.78125 173.789062 Z M 352.671875 158.539062 L 352.808594 158.625 C 352.960938 158.722656 353.085938 158.847656 353.191406 158.996094 C 353.292969 159.144531 353.363281 159.308594 353.398438 159.484375 C 353.4375 159.660156 353.4375 159.835938 353.402344 160.015625 C 353.371094 160.191406 353.304688 160.355469 353.203125 160.507812 L 352.953125 160.890625 L 350.539062 159.316406 L 350.789062 158.925781 C 350.890625 158.777344 351.011719 158.648438 351.164062 158.550781 C 351.3125 158.449219 351.472656 158.378906 351.652344 158.34375 C 351.828125 158.308594 352.003906 158.304688 352.179688 158.339844 C 352.355469 158.371094 352.519531 158.4375 352.671875 158.539062 Z M 347.027344 148.886719 L 344.128906 148.886719 L 344.128906 145.996094 Z M 321.25 145.324219 L 342.914062 145.324219 L 342.914062 149.5 C 342.914062 149.671875 342.972656 149.820312 343.097656 149.945312 C 343.21875 150.066406 343.367188 150.128906 343.539062 150.128906 L 347.671875 150.128906 L 347.671875 161.515625 L 341.980469 170.195312 C 341.960938 170.230469 341.945312 170.265625 341.933594 170.304688 C 341.917969 170.339844 341.90625 170.382812 341.898438 170.421875 L 341.496094 174.84375 C 341.476562 175.082031 341.566406 175.273438 341.765625 175.40625 C 341.972656 175.527344 342.183594 175.527344 342.390625 175.40625 L 346.199219 173.3125 C 346.261719 173.28125 346.3125 173.238281 346.355469 173.179688 L 346.386719 173.144531 L 347.640625 171.261719 L 347.640625 179.277344 L 321.25 179.277344 Z M 321.25 145.324219 " fill-opacity="1" fill-rule="nonzero"/></g><path fill="#189ab4" d="M 325.164062 153.132812 L 343.980469 153.195312 C 344.074219 153.21875 344.167969 153.21875 344.261719 153.199219 C 344.355469 153.179688 344.441406 153.140625 344.515625 153.082031 C 344.59375 153.019531 344.652344 152.949219 344.695312 152.859375 C 344.738281 152.773438 344.757812 152.683594 344.757812 152.585938 C 344.757812 152.488281 344.738281 152.398438 344.695312 152.3125 C 344.652344 152.222656 344.59375 152.152344 344.515625 152.089844 C 344.441406 152.03125 344.355469 151.992188 344.261719 151.972656 C 344.167969 151.953125 344.074219 151.953125 343.980469 151.976562 L 325.164062 151.921875 C 325.070312 151.894531 324.976562 151.890625 324.878906 151.910156 C 324.785156 151.929688 324.695312 151.96875 324.621094 152.027344 C 324.542969 152.085938 324.480469 152.160156 324.4375 152.25 C 324.394531 152.335938 324.371094 152.429688 324.371094 152.527344 C 324.371094 152.625 324.394531 152.714844 324.4375 152.804688 C 324.480469 152.890625 324.542969 152.964844 324.621094 153.023438 C 324.695312 153.082031 324.785156 153.121094 324.878906 153.140625 C 324.976562 153.160156 325.070312 153.15625 325.164062 153.132812 Z M 325.164062 153.132812 " fill-opacity="1" fill-rule="nonzero"/><path fill="#189ab4" d="M 325.164062 158.882812 L 343.980469 158.945312 C 344.152344 158.945312 344.300781 158.882812 344.421875 158.761719 C 344.546875 158.640625 344.605469 158.492188 344.605469 158.316406 C 344.605469 158.144531 344.546875 157.996094 344.421875 157.875 C 344.300781 157.753906 344.152344 157.691406 343.980469 157.691406 L 325.164062 157.628906 C 325.070312 157.601562 324.976562 157.597656 324.878906 157.617188 C 324.785156 157.636719 324.695312 157.675781 324.621094 157.734375 C 324.542969 157.792969 324.480469 157.867188 324.4375 157.957031 C 324.394531 158.042969 324.371094 158.136719 324.371094 158.234375 C 324.371094 158.332031 324.394531 158.421875 324.4375 158.511719 C 324.480469 158.597656 324.542969 158.671875 324.621094 158.730469 C 324.695312 158.789062 324.785156 158.828125 324.878906 158.847656 C 324.976562 158.867188 325.070312 158.863281 325.164062 158.839844 Z M 325.164062 158.882812 " fill-opacity="1" fill-rule="nonzero"/><path fill="#189ab4" d="M 340.101562 163.484375 L 325.164062 163.421875 C 325.070312 163.398438 324.976562 163.398438 324.882812 163.417969 C 324.789062 163.4375 324.703125 163.476562 324.625 163.535156 C 324.550781 163.597656 324.492188 163.667969 324.449219 163.757812 C 324.40625 163.84375 324.386719 163.933594 324.386719 164.03125 C 324.386719 164.128906 324.40625 164.21875 324.449219 164.304688 C 324.492188 164.394531 324.550781 164.464844 324.625 164.527344 C 324.703125 164.585938 324.789062 164.625 324.882812 164.644531 C 324.976562 164.664062 325.070312 164.664062 325.164062 164.640625 L 340.101562 164.695312 C 340.199219 164.722656 340.292969 164.726562 340.386719 164.707031 C 340.484375 164.6875 340.570312 164.648438 340.648438 164.589844 C 340.726562 164.53125 340.785156 164.457031 340.828125 164.367188 C 340.875 164.28125 340.894531 164.1875 340.894531 164.089844 C 340.894531 163.992188 340.875 163.902344 340.828125 163.8125 C 340.785156 163.726562 340.726562 163.652344 340.648438 163.59375 C 340.570312 163.535156 340.484375 163.496094 340.386719 163.476562 C 340.292969 163.457031 340.199219 163.460938 340.101562 163.484375 Z M 340.101562 163.484375 " fill-opacity="1" fill-rule="nonzero"/><path fill="#189ab4" d="M 338.101562 172.335938 L 325.421875 172.253906 C 325.285156 172.289062 325.175781 172.363281 325.089844 172.476562 C 325 172.589844 324.957031 172.71875 324.957031 172.859375 C 324.957031 173 325 173.128906 325.089844 173.238281 C 325.175781 173.351562 325.285156 173.425781 325.421875 173.464844 L 338.117188 173.527344 C 338.207031 173.550781 338.304688 173.550781 338.398438 173.53125 C 338.492188 173.511719 338.578125 173.472656 338.652344 173.414062 C 338.730469 173.351562 338.789062 173.28125 338.832031 173.191406 C 338.875 173.105469 338.894531 173.015625 338.894531 172.917969 C 338.894531 172.820312 338.875 172.730469 338.832031 172.644531 C 338.789062 172.554688 338.730469 172.484375 338.652344 172.421875 C 338.578125 172.363281 338.492188 172.324219 338.398438 172.304688 C 338.304688 172.285156 338.207031 172.285156 338.117188 172.308594 Z M 338.101562 172.335938 " fill-opacity="1" fill-rule="nonzero"/><g fill="#189ab4" fill-opacity="1"><g transform="translate(38.421436, 206.864958)"><g><path d="M 19.078125 0 L -1.6875 -49.5 L 11.046875 -49.5 L 23.515625 -16.984375 L 36 -49.5 L 48.71875 -49.5 L 27.953125 0 Z M 19.078125 0 "/></g></g></g><g fill="#189ab4" fill-opacity="1"><g transform="translate(79.821389, 206.864958)"><g><path d="M 4.625 -47.9375 C 5.863281 -49.175781 7.34375 -49.796875 9.0625 -49.796875 C 10.78125 -49.796875 12.257812 -49.175781 13.5 -47.9375 C 14.738281 -46.695312 15.359375 -45.21875 15.359375 -43.5 C 15.359375 -41.78125 14.738281 -40.300781 13.5 -39.0625 C 12.257812 -37.820312 10.78125 -37.203125 9.0625 -37.203125 C 7.34375 -37.203125 5.863281 -37.820312 4.625 -39.0625 C 3.382812 -40.300781 2.765625 -41.78125 2.765625 -43.5 C 2.765625 -45.21875 3.382812 -46.695312 4.625 -47.9375 Z M 3.59375 -30.78125 L 3.59375 0 L 14.21875 0 L 14.21875 -30.78125 Z M 3.59375 -30.78125 "/></g></g></g><g fill="#189ab4" fill-opacity="1"><g transform="translate(92.301367, 206.864958)"><g><path d="M 35.265625 -26.9375 C 38.148438 -23.78125 39.59375 -19.921875 39.59375 -15.359375 C 39.59375 -10.796875 38.148438 -6.941406 35.265625 -3.796875 C 32.390625 -0.660156 28.734375 0.90625 24.296875 0.90625 C 20.222656 0.90625 16.863281 -0.554688 14.21875 -3.484375 L 14.09375 -3.484375 L 14.09375 0 L 3.59375 0 L 3.59375 -51.59375 L 14.21875 -51.59375 L 14.21875 -27.84375 C 16.863281 -30.40625 20.222656 -31.6875 24.296875 -31.6875 C 28.734375 -31.6875 32.390625 -30.101562 35.265625 -26.9375 Z M 26.328125 -10.171875 C 27.648438 -11.515625 28.3125 -13.242188 28.3125 -15.359375 C 28.3125 -17.484375 27.625 -19.222656 26.25 -20.578125 C 24.875 -21.941406 23.164062 -22.625 21.125 -22.625 C 19.125 -22.625 17.429688 -21.941406 16.046875 -20.578125 C 14.671875 -19.222656 13.984375 -17.484375 13.984375 -15.359375 C 13.984375 -13.273438 14.648438 -11.550781 15.984375 -10.1875 C 17.328125 -8.832031 19.039062 -8.15625 21.125 -8.15625 C 23.28125 -8.15625 25.015625 -8.828125 26.328125 -10.171875 Z M 26.328125 -10.171875 "/></g></g></g><g fill="#189ab4" fill-opacity="1"><g transform="translate(127.641333, 206.864958)"><g><path d="M 34.734375 -13.921875 L 12.421875 -13.921875 C 12.421875 -11.765625 13.117188 -10.164062 14.515625 -9.125 C 15.921875 -8.082031 17.441406 -7.5625 19.078125 -7.5625 C 20.796875 -7.5625 22.15625 -7.789062 23.15625 -8.25 C 24.15625 -8.707031 25.296875 -9.617188 26.578125 -10.984375 L 34.265625 -7.140625 C 31.054688 -1.773438 25.734375 0.90625 18.296875 0.90625 C 13.660156 0.90625 9.679688 -0.679688 6.359375 -3.859375 C 3.035156 -7.046875 1.375 -10.878906 1.375 -15.359375 C 1.375 -19.835938 3.035156 -23.675781 6.359375 -26.875 C 9.679688 -30.082031 13.660156 -31.6875 18.296875 -31.6875 C 23.179688 -31.6875 27.148438 -30.273438 30.203125 -27.453125 C 33.265625 -24.628906 34.796875 -20.597656 34.796875 -15.359375 C 34.796875 -14.640625 34.773438 -14.160156 34.734375 -13.921875 Z M 12.71875 -19.796875 L 24.421875 -19.796875 C 24.179688 -21.398438 23.550781 -22.628906 22.53125 -23.484375 C 21.507812 -24.347656 20.195312 -24.78125 18.59375 -24.78125 C 16.832031 -24.78125 15.429688 -24.316406 14.390625 -23.390625 C 13.359375 -22.472656 12.800781 -21.273438 12.71875 -19.796875 Z M 12.71875 -19.796875 "/></g></g></g><g fill="#189ab4" fill-opacity="1"><g transform="translate(158.181297, 206.864958)"><g><path d="M 21.84375 -50.40625 C 24.519531 -50.40625 27.140625 -50.015625 29.703125 -49.234375 C 32.265625 -48.453125 34.164062 -47.679688 35.40625 -46.921875 L 37.203125 -45.71875 L 32.640625 -36.71875 C 32.273438 -36.957031 31.773438 -37.265625 31.140625 -37.640625 C 30.503906 -38.023438 29.304688 -38.535156 27.546875 -39.171875 C 25.785156 -39.816406 24.144531 -40.140625 22.625 -40.140625 C 20.738281 -40.140625 19.285156 -39.738281 18.265625 -38.9375 C 17.242188 -38.132812 16.734375 -37.054688 16.734375 -35.703125 C 16.734375 -35.023438 16.972656 -34.394531 17.453125 -33.8125 C 17.941406 -33.226562 18.765625 -32.601562 19.921875 -31.9375 C 21.078125 -31.28125 22.09375 -30.753906 22.96875 -30.359375 C 23.851562 -29.960938 25.21875 -29.363281 27.0625 -28.5625 C 30.257812 -27.195312 32.988281 -25.34375 35.25 -23 C 37.507812 -20.664062 38.640625 -18.019531 38.640625 -15.0625 C 38.640625 -12.21875 38.128906 -9.734375 37.109375 -7.609375 C 36.085938 -5.492188 34.6875 -3.835938 32.90625 -2.640625 C 31.125 -1.441406 29.15625 -0.550781 27 0.03125 C 24.84375 0.613281 22.503906 0.90625 19.984375 0.90625 C 17.816406 0.90625 15.691406 0.679688 13.609375 0.234375 C 11.535156 -0.203125 9.796875 -0.75 8.390625 -1.40625 C 6.992188 -2.070312 5.734375 -2.722656 4.609375 -3.359375 C 3.492188 -3.992188 2.675781 -4.535156 2.15625 -4.984375 L 1.375 -5.640625 L 7.015625 -15.125 C 7.492188 -14.71875 8.15625 -14.203125 9 -13.578125 C 9.84375 -12.960938 11.332031 -12.132812 13.46875 -11.09375 C 15.613281 -10.0625 17.503906 -9.546875 19.140625 -9.546875 C 23.898438 -9.546875 26.28125 -11.164062 26.28125 -14.40625 C 26.28125 -15.082031 26.109375 -15.707031 25.765625 -16.28125 C 25.429688 -16.863281 24.832031 -17.445312 23.96875 -18.03125 C 23.113281 -18.613281 22.351562 -19.070312 21.6875 -19.40625 C 21.03125 -19.75 19.953125 -20.269531 18.453125 -20.96875 C 16.953125 -21.664062 15.84375 -22.195312 15.125 -22.5625 C 12.125 -24.039062 9.800781 -25.890625 8.15625 -28.109375 C 6.519531 -30.328125 5.703125 -32.71875 5.703125 -35.28125 C 5.703125 -39.71875 7.34375 -43.347656 10.625 -46.171875 C 13.90625 -48.992188 17.644531 -50.40625 21.84375 -50.40625 Z M 21.84375 -50.40625 "/></g></g></g><g fill="#189ab4" fill-opacity="1"><g transform="translate(192.861253, 206.864958)"><g><path d="M 19.984375 -22.984375 C 17.984375 -22.984375 16.257812 -22.242188 14.8125 -20.765625 C 13.375 -19.285156 12.65625 -17.503906 12.65625 -15.421875 C 12.65625 -13.296875 13.375 -11.492188 14.8125 -10.015625 C 16.257812 -8.535156 17.984375 -7.796875 19.984375 -7.796875 C 20.941406 -7.796875 21.847656 -7.914062 22.703125 -8.15625 C 23.566406 -8.394531 24.195312 -8.632812 24.59375 -8.875 L 25.140625 -9.234375 L 28.734375 -1.859375 C 28.453125 -1.660156 28.0625 -1.410156 27.5625 -1.109375 C 27.0625 -0.804688 25.921875 -0.394531 24.140625 0.125 C 22.367188 0.644531 20.460938 0.90625 18.421875 0.90625 C 13.898438 0.90625 9.925781 -0.679688 6.5 -3.859375 C 3.082031 -7.046875 1.375 -10.859375 1.375 -15.296875 C 1.375 -19.773438 3.082031 -23.625 6.5 -26.84375 C 9.925781 -30.070312 13.898438 -31.6875 18.421875 -31.6875 C 20.460938 -31.6875 22.34375 -31.441406 24.0625 -30.953125 C 25.78125 -30.472656 27 -29.992188 27.71875 -29.515625 L 28.734375 -28.796875 L 25.140625 -21.546875 C 23.816406 -22.503906 22.097656 -22.984375 19.984375 -22.984375 Z M 19.984375 -22.984375 "/></g></g></g><g fill="#189ab4" fill-opacity="1"><g transform="translate(216.681224, 206.864958)"><g><path d="M 3.59375 0 L 3.59375 -30.78125 L 14.21875 -30.78125 L 14.21875 -26.34375 L 14.34375 -26.34375 C 14.414062 -26.5 14.539062 -26.695312 14.71875 -26.9375 C 14.90625 -27.175781 15.296875 -27.59375 15.890625 -28.1875 C 16.492188 -28.789062 17.132812 -29.332031 17.8125 -29.8125 C 18.5 -30.300781 19.378906 -30.734375 20.453125 -31.109375 C 21.535156 -31.492188 22.640625 -31.6875 23.765625 -31.6875 C 24.921875 -31.6875 26.054688 -31.523438 27.171875 -31.203125 C 28.296875 -30.878906 29.117188 -30.554688 29.640625 -30.234375 L 30.484375 -29.765625 L 26.046875 -20.765625 C 24.722656 -21.878906 22.878906 -22.4375 20.515625 -22.4375 C 19.234375 -22.4375 18.132812 -22.15625 17.21875 -21.59375 C 16.300781 -21.039062 15.648438 -20.363281 15.265625 -19.5625 C 14.890625 -18.757812 14.617188 -18.078125 14.453125 -17.515625 C 14.296875 -16.960938 14.21875 -16.523438 14.21875 -16.203125 L 14.21875 0 Z M 3.59375 0 "/></g></g></g><g fill="#189ab4" fill-opacity="1"><g transform="translate(240.921194, 206.864958)"><g><path d="M 4.625 -47.9375 C 5.863281 -49.175781 7.34375 -49.796875 9.0625 -49.796875 C 10.78125 -49.796875 12.257812 -49.175781 13.5 -47.9375 C 14.738281 -46.695312 15.359375 -45.21875 15.359375 -43.5 C 15.359375 -41.78125 14.738281 -40.300781 13.5 -39.0625 C 12.257812 -37.820312 10.78125 -37.203125 9.0625 -37.203125 C 7.34375 -37.203125 5.863281 -37.820312 4.625 -39.0625 C 3.382812 -40.300781 2.765625 -41.78125 2.765625 -43.5 C 2.765625 -45.21875 3.382812 -46.695312 4.625 -47.9375 Z M 3.59375 -30.78125 L 3.59375 0 L 14.21875 0 L 14.21875 -30.78125 Z M 3.59375 -30.78125 "/></g></g></g><g fill="#189ab4" fill-opacity="1"><g transform="translate(253.401181, 206.864958)"><g><path d="M 35.265625 -26.9375 C 38.148438 -23.78125 39.59375 -19.921875 39.59375 -15.359375 C 39.59375 -10.796875 38.148438 -6.941406 35.265625 -3.796875 C 32.390625 -0.660156 28.734375 0.90625 24.296875 0.90625 C 20.222656 0.90625 16.863281 -0.554688 14.21875 -3.484375 L 14.09375 -3.484375 L 14.09375 0 L 3.59375 0 L 3.59375 -51.59375 L 14.21875 -51.59375 L 14.21875 -27.84375 C 16.863281 -30.40625 20.222656 -31.6875 24.296875 -31.6875 C 28.734375 -31.6875 32.390625 -30.101562 35.265625 -26.9375 Z M 26.328125 -10.171875 C 27.648438 -11.515625 28.3125 -13.242188 28.3125 -15.359375 C 28.3125 -17.484375 27.625 -19.222656 26.25 -20.578125 C 24.875 -21.941406 23.164062 -22.625 21.125 -22.625 C 19.125 -22.625 17.429688 -21.941406 16.046875 -20.578125 C 14.671875 -19.222656 13.984375 -17.484375 13.984375 -15.359375 C 13.984375 -13.273438 14.648438 -11.550781 15.984375 -10.1875 C 17.328125 -8.832031 19.039062 -8.15625 21.125 -8.15625 C 23.28125 -8.15625 25.015625 -8.828125 26.328125 -10.171875 Z M 26.328125 -10.171875 "/></g></g></g><g fill="#189ab4" fill-opacity="1"><g transform="translate(288.741153, 206.864958)"><g><path d="M 34.734375 -13.921875 L 12.421875 -13.921875 C 12.421875 -11.765625 13.117188 -10.164062 14.515625 -9.125 C 15.921875 -8.082031 17.441406 -7.5625 19.078125 -7.5625 C 20.796875 -7.5625 22.15625 -7.789062 23.15625 -8.25 C 24.15625 -8.707031 25.296875 -9.617188 26.578125 -10.984375 L 34.265625 -7.140625 C 31.054688 -1.773438 25.734375 0.90625 18.296875 0.90625 C 13.660156 0.90625 9.679688 -0.679688 6.359375 -3.859375 C 3.035156 -7.046875 1.375 -10.878906 1.375 -15.359375 C 1.375 -19.835938 3.035156 -23.675781 6.359375 -26.875 C 9.679688 -30.082031 13.660156 -31.6875 18.296875 -31.6875 C 23.179688 -31.6875 27.148438 -30.273438 30.203125 -27.453125 C 33.265625 -24.628906 34.796875 -20.597656 34.796875 -15.359375 C 34.796875 -14.640625 34.773438 -14.160156 34.734375 -13.921875 Z M 12.71875 -19.796875 L 24.421875 -19.796875 C 24.179688 -21.398438 23.550781 -22.628906 22.53125 -23.484375 C 21.507812 -24.347656 20.195312 -24.78125 18.59375 -24.78125 C 16.832031 -24.78125 15.429688 -24.316406 14.390625 -23.390625 C 13.359375 -22.472656 12.800781 -21.273438 12.71875 -19.796875 Z M 12.71875 -19.796875 "/></g></g></g><g fill="#189ab4" fill-opacity="1"><g transform="translate(319.284703, 206.864958)"><g/></g></g><g fill="#189ab4" fill-opacity="1"><g transform="translate(330.024688, 206.864958)"><g/></g></g></svg>