<svg xmlns="http://www.w3.org/2000/svg" xmlns:xlink="http://www.w3.org/1999/xlink" width="500" zoomAndPan="magnify" viewBox="0 0 375 374.999991" height="500" preserveAspectRatio="xMidYMid meet" version="1.0"><defs><g/><clipPath id="ffa91d22db"><path d="M 266 141.738281 L 301 141.738281 L 301 178.488281 L 266 178.488281 Z M 266 141.738281 " clip-rule="nonzero"/></clipPath></defs><g clip-path="url(#ffa91d22db)"><path fill="#189ab4" d="M 266.085938 142.363281 L 266.085938 177.484375 C 266.085938 177.660156 266.148438 177.804688 266.269531 177.929688 C 266.394531 178.050781 266.539062 178.113281 266.714844 178.113281 L 294.308594 178.113281 C 294.480469 178.113281 294.628906 178.050781 294.753906 177.929688 C 294.875 177.804688 294.9375 177.660156 294.9375 177.484375 L 294.9375 166.988281 L 299.539062 159.925781 L 300.265625 158.816406 C 300.453125 158.53125 300.578125 158.21875 300.640625 157.882812 C 300.703125 157.546875 300.699219 157.214844 300.628906 156.878906 C 300.558594 156.546875 300.429688 156.238281 300.238281 155.957031 C 300.042969 155.675781 299.804688 155.441406 299.519531 155.253906 L 299.382812 155.164062 C 299.097656 154.976562 298.785156 154.851562 298.449219 154.789062 C 298.117188 154.726562 297.78125 154.730469 297.445312 154.800781 C 297.113281 154.871094 296.804688 155 296.523438 155.195312 C 296.242188 155.386719 296.007812 155.625 295.820312 155.910156 L 295.25 156.789062 L 294.921875 157.292969 L 294.921875 146.894531 C 294.921875 146.726562 294.863281 146.585938 294.746094 146.464844 L 290.214844 141.917969 C 290.097656 141.796875 289.953125 141.738281 289.785156 141.738281 L 266.695312 141.738281 C 266.527344 141.742188 266.382812 141.804688 266.265625 141.929688 C 266.144531 142.050781 266.085938 142.195312 266.085938 142.363281 Z M 291.800781 169.578125 L 289.386719 167.996094 L 295.933594 157.957031 L 298.347656 159.535156 Z M 289.035156 169.214844 L 290.773438 170.347656 L 288.832031 171.414062 Z M 298.722656 156.164062 L 298.863281 156.25 C 299.011719 156.347656 299.140625 156.472656 299.242188 156.621094 C 299.34375 156.769531 299.414062 156.933594 299.449219 157.109375 C 299.488281 157.285156 299.488281 157.460938 299.457031 157.640625 C 299.421875 157.816406 299.355469 157.980469 299.257812 158.132812 L 299.007812 158.515625 L 296.589844 156.941406 L 296.84375 156.550781 C 296.941406 156.402344 297.066406 156.273438 297.214844 156.175781 C 297.363281 156.074219 297.527344 156.003906 297.703125 155.96875 C 297.878906 155.929688 298.054688 155.929688 298.234375 155.964844 C 298.410156 155.996094 298.574219 156.0625 298.722656 156.164062 Z M 293.078125 146.511719 L 290.183594 146.511719 L 290.183594 143.621094 Z M 267.304688 142.949219 L 288.964844 142.949219 L 288.964844 147.125 C 288.964844 147.296875 289.027344 147.445312 289.148438 147.570312 C 289.273438 147.691406 289.417969 147.753906 289.59375 147.753906 L 293.726562 147.753906 L 293.726562 159.140625 L 288.03125 167.820312 C 288.011719 167.855469 287.996094 167.890625 287.988281 167.929688 C 287.972656 167.964844 287.960938 168.007812 287.949219 168.046875 L 287.546875 172.46875 C 287.53125 172.707031 287.621094 172.894531 287.816406 173.03125 C 288.027344 173.152344 288.234375 173.152344 288.445312 173.03125 L 292.25 170.9375 C 292.3125 170.90625 292.367188 170.863281 292.410156 170.804688 L 292.441406 170.769531 L 293.695312 168.886719 L 293.695312 176.902344 L 267.304688 176.902344 Z M 267.304688 142.949219 " fill-opacity="1" fill-rule="nonzero"/></g><path fill="#189ab4" d="M 271.21875 150.757812 L 290.03125 150.820312 C 290.125 150.84375 290.21875 150.84375 290.3125 150.824219 C 290.410156 150.804688 290.492188 150.765625 290.570312 150.707031 C 290.644531 150.644531 290.707031 150.574219 290.746094 150.484375 C 290.789062 150.398438 290.8125 150.308594 290.8125 150.210938 C 290.8125 150.113281 290.789062 150.023438 290.746094 149.933594 C 290.707031 149.847656 290.644531 149.777344 290.570312 149.714844 C 290.492188 149.65625 290.410156 149.617188 290.3125 149.597656 C 290.21875 149.578125 290.125 149.578125 290.03125 149.601562 L 271.21875 149.546875 C 271.121094 149.519531 271.027344 149.515625 270.933594 149.535156 C 270.835938 149.554688 270.75 149.59375 270.671875 149.652344 C 270.59375 149.710938 270.535156 149.785156 270.488281 149.875 C 270.445312 149.960938 270.425781 150.054688 270.425781 150.152344 C 270.425781 150.25 270.445312 150.339844 270.488281 150.429688 C 270.535156 150.515625 270.59375 150.589844 270.671875 150.648438 C 270.75 150.707031 270.835938 150.746094 270.933594 150.765625 C 271.027344 150.785156 271.121094 150.78125 271.21875 150.757812 Z M 271.21875 150.757812 " fill-opacity="1" fill-rule="nonzero"/><path fill="#189ab4" d="M 271.21875 156.507812 L 290.03125 156.570312 C 290.203125 156.570312 290.351562 156.507812 290.476562 156.386719 C 290.597656 156.265625 290.660156 156.117188 290.660156 155.941406 C 290.660156 155.769531 290.597656 155.621094 290.476562 155.5 C 290.351562 155.375 290.203125 155.316406 290.03125 155.316406 L 271.21875 155.253906 C 271.121094 155.226562 271.027344 155.222656 270.933594 155.242188 C 270.835938 155.261719 270.75 155.300781 270.671875 155.359375 C 270.59375 155.417969 270.535156 155.492188 270.488281 155.582031 C 270.445312 155.667969 270.425781 155.761719 270.425781 155.859375 C 270.425781 155.957031 270.445312 156.046875 270.488281 156.136719 C 270.535156 156.222656 270.59375 156.296875 270.671875 156.355469 C 270.75 156.414062 270.835938 156.453125 270.933594 156.472656 C 271.027344 156.492188 271.121094 156.488281 271.21875 156.464844 Z M 271.21875 156.507812 " fill-opacity="1" fill-rule="nonzero"/><path fill="#189ab4" d="M 286.15625 161.109375 L 271.21875 161.046875 C 271.125 161.023438 271.027344 161.023438 270.933594 161.042969 C 270.839844 161.0625 270.753906 161.101562 270.679688 161.160156 C 270.601562 161.222656 270.542969 161.292969 270.5 161.382812 C 270.457031 161.46875 270.4375 161.558594 270.4375 161.65625 C 270.4375 161.753906 270.457031 161.84375 270.5 161.929688 C 270.542969 162.019531 270.601562 162.089844 270.679688 162.152344 C 270.753906 162.210938 270.839844 162.25 270.933594 162.269531 C 271.027344 162.289062 271.125 162.289062 271.21875 162.265625 L 286.15625 162.320312 C 286.25 162.347656 286.34375 162.351562 286.441406 162.332031 C 286.535156 162.3125 286.625 162.273438 286.699219 162.214844 C 286.777344 162.15625 286.839844 162.082031 286.882812 161.992188 C 286.925781 161.90625 286.949219 161.8125 286.949219 161.714844 C 286.949219 161.617188 286.925781 161.527344 286.882812 161.4375 C 286.839844 161.351562 286.777344 161.277344 286.699219 161.21875 C 286.625 161.160156 286.535156 161.121094 286.441406 161.101562 C 286.34375 161.082031 286.25 161.085938 286.15625 161.109375 Z M 286.15625 161.109375 " fill-opacity="1" fill-rule="nonzero"/><path fill="#189ab4" d="M 284.15625 169.960938 L 271.472656 169.878906 C 271.335938 169.914062 271.226562 169.988281 271.140625 170.101562 C 271.054688 170.214844 271.011719 170.34375 271.011719 170.484375 C 271.011719 170.625 271.054688 170.75 271.140625 170.863281 C 271.226562 170.976562 271.335938 171.050781 271.472656 171.089844 L 284.167969 171.152344 C 284.261719 171.175781 284.355469 171.175781 284.449219 171.15625 C 284.542969 171.136719 284.628906 171.097656 284.707031 171.039062 C 284.78125 170.976562 284.839844 170.90625 284.882812 170.816406 C 284.925781 170.730469 284.945312 170.640625 284.945312 170.542969 C 284.945312 170.445312 284.925781 170.355469 284.882812 170.269531 C 284.839844 170.179688 284.78125 170.109375 284.707031 170.046875 C 284.628906 169.988281 284.542969 169.949219 284.449219 169.929688 C 284.355469 169.910156 284.261719 169.910156 284.167969 169.933594 Z M 284.15625 169.960938 " fill-opacity="1" fill-rule="nonzero"/><g fill="#189ab4" fill-opacity="1"><g transform="translate(79.931747, 188.614968)"><g><path d="M 12.71875 0 L -1.125 -33 L 7.359375 -33 L 15.6875 -11.3125 L 24 -33 L 32.484375 -33 L 18.640625 0 Z M 12.71875 0 "/></g></g></g><g fill="#189ab4" fill-opacity="1"><g transform="translate(107.52864, 188.614968)"><g><path d="M 3.078125 -31.953125 C 3.898438 -32.785156 4.882812 -33.203125 6.03125 -33.203125 C 7.1875 -33.203125 8.175781 -32.785156 9 -31.953125 C 9.820312 -31.128906 10.234375 -30.144531 10.234375 -29 C 10.234375 -27.851562 9.820312 -26.863281 9 -26.03125 C 8.175781 -25.207031 7.1875 -24.796875 6.03125 -24.796875 C 4.882812 -24.796875 3.898438 -25.207031 3.078125 -26.03125 C 2.253906 -26.863281 1.84375 -27.851562 1.84375 -29 C 1.84375 -30.144531 2.253906 -31.128906 3.078125 -31.953125 Z M 2.40625 -20.515625 L 2.40625 0 L 9.484375 0 L 9.484375 -20.515625 Z M 2.40625 -20.515625 "/></g></g></g><g fill="#189ab4" fill-opacity="1"><g transform="translate(115.847447, 188.614968)"><g><path d="M 23.515625 -17.953125 C 25.441406 -15.847656 26.40625 -13.273438 26.40625 -10.234375 C 26.40625 -7.203125 25.441406 -4.640625 23.515625 -2.546875 C 21.597656 -0.453125 19.160156 0.59375 16.203125 0.59375 C 13.484375 0.59375 11.242188 -0.375 9.484375 -2.3125 L 9.40625 -2.3125 L 9.40625 0 L 2.40625 0 L 2.40625 -34.40625 L 9.484375 -34.40625 L 9.484375 -18.5625 C 11.242188 -20.269531 13.484375 -21.125 16.203125 -21.125 C 19.160156 -21.125 21.597656 -20.066406 23.515625 -17.953125 Z M 17.546875 -6.78125 C 18.429688 -7.675781 18.875 -8.828125 18.875 -10.234375 C 18.875 -11.648438 18.414062 -12.8125 17.5 -13.71875 C 16.582031 -14.625 15.441406 -15.078125 14.078125 -15.078125 C 12.742188 -15.078125 11.613281 -14.625 10.6875 -13.71875 C 9.769531 -12.8125 9.3125 -11.648438 9.3125 -10.234375 C 9.3125 -8.847656 9.757812 -7.703125 10.65625 -6.796875 C 11.550781 -5.890625 12.691406 -5.4375 14.078125 -5.4375 C 15.515625 -5.4375 16.671875 -5.882812 17.546875 -6.78125 Z M 17.546875 -6.78125 "/></g></g></g><g fill="#189ab4" fill-opacity="1"><g transform="translate(139.404737, 188.614968)"><g><path d="M 23.15625 -9.28125 L 8.28125 -9.28125 C 8.28125 -7.84375 8.742188 -6.773438 9.671875 -6.078125 C 10.609375 -5.390625 11.625 -5.046875 12.71875 -5.046875 C 13.863281 -5.046875 14.769531 -5.195312 15.4375 -5.5 C 16.101562 -5.800781 16.863281 -6.40625 17.71875 -7.3125 L 22.84375 -4.765625 C 20.707031 -1.191406 17.160156 0.59375 12.203125 0.59375 C 9.109375 0.59375 6.453125 -0.460938 4.234375 -2.578125 C 2.023438 -4.703125 0.921875 -7.253906 0.921875 -10.234375 C 0.921875 -13.222656 2.023438 -15.785156 4.234375 -17.921875 C 6.453125 -20.054688 9.109375 -21.125 12.203125 -21.125 C 15.453125 -21.125 18.097656 -20.179688 20.140625 -18.296875 C 22.179688 -16.421875 23.203125 -13.734375 23.203125 -10.234375 C 23.203125 -9.753906 23.1875 -9.4375 23.15625 -9.28125 Z M 8.484375 -13.203125 L 16.28125 -13.203125 C 16.125 -14.265625 15.703125 -15.082031 15.015625 -15.65625 C 14.335938 -16.226562 13.46875 -16.515625 12.40625 -16.515625 C 11.226562 -16.515625 10.289062 -16.207031 9.59375 -15.59375 C 8.90625 -14.988281 8.535156 -14.191406 8.484375 -13.203125 Z M 8.484375 -13.203125 "/></g></g></g><g fill="#189ab4" fill-opacity="1"><g transform="translate(159.762339, 188.614968)"><g><path d="M 14.5625 -33.59375 C 16.34375 -33.59375 18.085938 -33.332031 19.796875 -32.8125 C 21.503906 -32.300781 22.769531 -31.789062 23.59375 -31.28125 L 24.796875 -30.484375 L 21.765625 -24.484375 C 21.523438 -24.640625 21.191406 -24.84375 20.765625 -25.09375 C 20.335938 -25.351562 19.535156 -25.695312 18.359375 -26.125 C 17.179688 -26.550781 16.085938 -26.765625 15.078125 -26.765625 C 13.828125 -26.765625 12.859375 -26.492188 12.171875 -25.953125 C 11.492188 -25.421875 11.15625 -24.703125 11.15625 -23.796875 C 11.15625 -23.347656 11.316406 -22.925781 11.640625 -22.53125 C 11.960938 -22.144531 12.507812 -21.734375 13.28125 -21.296875 C 14.050781 -20.859375 14.726562 -20.503906 15.3125 -20.234375 C 15.90625 -19.972656 16.816406 -19.578125 18.046875 -19.046875 C 20.171875 -18.140625 21.988281 -16.90625 23.5 -15.34375 C 25.007812 -13.78125 25.765625 -12.015625 25.765625 -10.046875 C 25.765625 -8.148438 25.421875 -6.492188 24.734375 -5.078125 C 24.054688 -3.660156 23.125 -2.550781 21.9375 -1.75 C 20.75 -0.957031 19.4375 -0.367188 18 0.015625 C 16.5625 0.398438 15 0.59375 13.3125 0.59375 C 11.875 0.59375 10.460938 0.445312 9.078125 0.15625 C 7.691406 -0.132812 6.53125 -0.5 5.59375 -0.9375 C 4.664062 -1.375 3.828125 -1.804688 3.078125 -2.234375 C 2.328125 -2.660156 1.78125 -3.019531 1.4375 -3.3125 L 0.921875 -3.765625 L 4.6875 -10.078125 C 5 -9.816406 5.4375 -9.476562 6 -9.0625 C 6.5625 -8.644531 7.554688 -8.085938 8.984375 -7.390625 C 10.410156 -6.703125 11.671875 -6.359375 12.765625 -6.359375 C 15.929688 -6.359375 17.515625 -7.4375 17.515625 -9.59375 C 17.515625 -10.050781 17.398438 -10.472656 17.171875 -10.859375 C 16.953125 -11.242188 16.554688 -11.628906 15.984375 -12.015625 C 15.410156 -12.398438 14.898438 -12.707031 14.453125 -12.9375 C 14.015625 -13.164062 13.296875 -13.515625 12.296875 -13.984375 C 11.296875 -14.453125 10.554688 -14.804688 10.078125 -15.046875 C 8.078125 -16.023438 6.53125 -17.253906 5.4375 -18.734375 C 4.34375 -20.210938 3.796875 -21.804688 3.796875 -23.515625 C 3.796875 -26.472656 4.890625 -28.890625 7.078125 -30.765625 C 9.265625 -32.648438 11.757812 -33.59375 14.5625 -33.59375 Z M 14.5625 -33.59375 "/></g></g></g><g fill="#189ab4" fill-opacity="1"><g transform="translate(182.879666, 188.614968)"><g><path d="M 13.3125 -15.3125 C 11.976562 -15.3125 10.832031 -14.816406 9.875 -13.828125 C 8.914062 -12.847656 8.4375 -11.664062 8.4375 -10.28125 C 8.4375 -8.863281 8.914062 -7.660156 9.875 -6.671875 C 10.832031 -5.691406 11.976562 -5.203125 13.3125 -5.203125 C 13.957031 -5.203125 14.566406 -5.28125 15.140625 -5.4375 C 15.710938 -5.601562 16.132812 -5.765625 16.40625 -5.921875 L 16.765625 -6.15625 L 19.15625 -1.234375 C 18.96875 -1.109375 18.707031 -0.941406 18.375 -0.734375 C 18.039062 -0.535156 17.28125 -0.265625 16.09375 0.078125 C 14.90625 0.421875 13.632812 0.59375 12.28125 0.59375 C 9.269531 0.59375 6.625 -0.460938 4.34375 -2.578125 C 2.0625 -4.703125 0.921875 -7.242188 0.921875 -10.203125 C 0.921875 -13.191406 2.0625 -15.757812 4.34375 -17.90625 C 6.625 -20.050781 9.269531 -21.125 12.28125 -21.125 C 13.632812 -21.125 14.882812 -20.960938 16.03125 -20.640625 C 17.1875 -20.316406 18.003906 -20 18.484375 -19.6875 L 19.15625 -19.203125 L 16.765625 -14.359375 C 15.878906 -14.992188 14.726562 -15.3125 13.3125 -15.3125 Z M 13.3125 -15.3125 "/></g></g></g><g fill="#189ab4" fill-opacity="1"><g transform="translate(198.757713, 188.614968)"><g><path d="M 2.40625 0 L 2.40625 -20.515625 L 9.484375 -20.515625 L 9.484375 -17.5625 L 9.5625 -17.5625 C 9.613281 -17.664062 9.695312 -17.796875 9.8125 -17.953125 C 9.9375 -18.117188 10.195312 -18.398438 10.59375 -18.796875 C 11 -19.203125 11.425781 -19.5625 11.875 -19.875 C 12.332031 -20.195312 12.921875 -20.484375 13.640625 -20.734375 C 14.359375 -20.992188 15.09375 -21.125 15.84375 -21.125 C 16.613281 -21.125 17.367188 -21.015625 18.109375 -20.796875 C 18.859375 -20.585938 19.410156 -20.375 19.765625 -20.15625 L 20.3125 -19.84375 L 17.359375 -13.84375 C 16.484375 -14.582031 15.257812 -14.953125 13.6875 -14.953125 C 12.832031 -14.953125 12.097656 -14.765625 11.484375 -14.390625 C 10.867188 -14.023438 10.429688 -13.570312 10.171875 -13.03125 C 9.921875 -12.5 9.742188 -12.046875 9.640625 -11.671875 C 9.535156 -11.304688 9.484375 -11.015625 9.484375 -10.796875 L 9.484375 0 Z M 2.40625 0 "/></g></g></g><g fill="#189ab4" fill-opacity="1"><g transform="translate(214.915728, 188.614968)"><g><path d="M 3.078125 -31.953125 C 3.898438 -32.785156 4.882812 -33.203125 6.03125 -33.203125 C 7.1875 -33.203125 8.175781 -32.785156 9 -31.953125 C 9.820312 -31.128906 10.234375 -30.144531 10.234375 -29 C 10.234375 -27.851562 9.820312 -26.863281 9 -26.03125 C 8.175781 -25.207031 7.1875 -24.796875 6.03125 -24.796875 C 4.882812 -24.796875 3.898438 -25.207031 3.078125 -26.03125 C 2.253906 -26.863281 1.84375 -27.851562 1.84375 -29 C 1.84375 -30.144531 2.253906 -31.128906 3.078125 -31.953125 Z M 2.40625 -20.515625 L 2.40625 0 L 9.484375 0 L 9.484375 -20.515625 Z M 2.40625 -20.515625 "/></g></g></g><g fill="#189ab4" fill-opacity="1"><g transform="translate(223.23453, 188.614968)"><g><path d="M 23.515625 -17.953125 C 25.441406 -15.847656 26.40625 -13.273438 26.40625 -10.234375 C 26.40625 -7.203125 25.441406 -4.640625 23.515625 -2.546875 C 21.597656 -0.453125 19.160156 0.59375 16.203125 0.59375 C 13.484375 0.59375 11.242188 -0.375 9.484375 -2.3125 L 9.40625 -2.3125 L 9.40625 0 L 2.40625 0 L 2.40625 -34.40625 L 9.484375 -34.40625 L 9.484375 -18.5625 C 11.242188 -20.269531 13.484375 -21.125 16.203125 -21.125 C 19.160156 -21.125 21.597656 -20.066406 23.515625 -17.953125 Z M 17.546875 -6.78125 C 18.429688 -7.675781 18.875 -8.828125 18.875 -10.234375 C 18.875 -11.648438 18.414062 -12.8125 17.5 -13.71875 C 16.582031 -14.625 15.441406 -15.078125 14.078125 -15.078125 C 12.742188 -15.078125 11.613281 -14.625 10.6875 -13.71875 C 9.769531 -12.8125 9.3125 -11.648438 9.3125 -10.234375 C 9.3125 -8.847656 9.757812 -7.703125 10.65625 -6.796875 C 11.550781 -5.890625 12.691406 -5.4375 14.078125 -5.4375 C 15.515625 -5.4375 16.671875 -5.882812 17.546875 -6.78125 Z M 17.546875 -6.78125 "/></g></g></g><g fill="#189ab4" fill-opacity="1"><g transform="translate(246.791814, 188.614968)"><g><path d="M 23.15625 -9.28125 L 8.28125 -9.28125 C 8.28125 -7.84375 8.742188 -6.773438 9.671875 -6.078125 C 10.609375 -5.390625 11.625 -5.046875 12.71875 -5.046875 C 13.863281 -5.046875 14.769531 -5.195312 15.4375 -5.5 C 16.101562 -5.800781 16.863281 -6.40625 17.71875 -7.3125 L 22.84375 -4.765625 C 20.707031 -1.191406 17.160156 0.59375 12.203125 0.59375 C 9.109375 0.59375 6.453125 -0.460938 4.234375 -2.578125 C 2.023438 -4.703125 0.921875 -7.253906 0.921875 -10.234375 C 0.921875 -13.222656 2.023438 -15.785156 4.234375 -17.921875 C 6.453125 -20.054688 9.109375 -21.125 12.203125 -21.125 C 15.453125 -21.125 18.097656 -20.179688 20.140625 -18.296875 C 22.179688 -16.421875 23.203125 -13.734375 23.203125 -10.234375 C 23.203125 -9.753906 23.1875 -9.4375 23.15625 -9.28125 Z M 8.484375 -13.203125 L 16.28125 -13.203125 C 16.125 -14.265625 15.703125 -15.082031 15.015625 -15.65625 C 14.335938 -16.226562 13.46875 -16.515625 12.40625 -16.515625 C 11.226562 -16.515625 10.289062 -16.207031 9.59375 -15.59375 C 8.90625 -14.988281 8.535156 -14.191406 8.484375 -13.203125 Z M 8.484375 -13.203125 "/></g></g></g><g fill="#189ab4" fill-opacity="1"><g transform="translate(267.150485, 188.614968)"><g/></g></g><g fill="#189ab4" fill-opacity="1"><g transform="translate(274.309398, 188.614968)"><g/></g></g></svg>